<svg width="222" height="89" viewBox="0 0 222 89" fill="none" xmlns="http://www.w3.org/2000/svg">
<path d="M15.8203 30.2422L11.8828 68H3.26953L11.8828 17.375H24.6445L36.4922 56.0117L48.4805 17.375H61.2422L68.4141 68H54.2109L50.0273 31.2266L40.1484 68H27.3867L15.8203 30.2422ZM91.2656 68H77.3086V17.375H91.2656V68ZM150.961 43.7773V44.4453C150.914 46.4141 150.703 48.4531 150.328 50.5625C149.977 52.6719 149.473 54.7812 148.816 56.8906C148.16 59 147.375 61.0859 146.461 63.1484C145.547 65.2109 144.516 67.1797 143.367 69.0547C142.242 70.9531 141.023 72.7227 139.711 74.3633C138.398 76.0273 137.016 77.4922 135.562 78.7578L130.324 75.7344C131.145 74.3516 131.883 72.8398 132.539 71.1992C133.219 69.582 133.828 67.8828 134.367 66.1016C134.906 64.3203 135.363 62.4922 135.738 60.6172C136.137 58.7422 136.465 56.8789 136.723 55.0273C136.98 53.1758 137.168 51.3594 137.285 49.5781C137.426 47.7734 137.496 46.0625 137.496 44.4453C137.496 43.1797 137.484 41.75 137.461 40.1562C137.461 38.5391 137.367 36.8984 137.18 35.2344C137.016 33.5703 136.734 31.9531 136.336 30.3828C135.938 28.7891 135.34 27.3711 134.543 26.1289C133.77 24.8867 132.762 23.8906 131.52 23.1406C130.301 22.3906 128.777 22.0156 126.949 22.0156C125.332 22.0156 123.938 22.2969 122.766 22.8594C121.617 23.3984 120.633 24.1367 119.812 25.0742C119.016 25.9883 118.371 27.0547 117.879 28.2734C117.41 29.4922 117.035 30.7812 116.754 32.1406C116.496 33.4766 116.32 34.8359 116.227 36.2188C116.156 37.5781 116.121 38.8672 116.121 40.0859V49.8945H131.273V55.6953H116.121V68H102.164V42.2656C102.164 38.5859 102.75 35.1641 103.922 32C105.094 28.8359 106.746 26.0938 108.879 23.7734C111.035 21.4297 113.613 19.6016 116.613 18.2891C119.637 16.9531 123 16.2852 126.703 16.2852C129.211 16.2852 131.555 16.6484 133.734 17.375C135.938 18.0781 137.941 19.0625 139.746 20.3281C141.551 21.5703 143.156 23.0586 144.562 24.793C145.992 26.5039 147.176 28.3789 148.113 30.418C149.074 32.457 149.801 34.6133 150.293 36.8867C150.785 39.1602 151.008 41.457 150.961 43.7773Z" fill="#07D3C9"/>
<path d="M222 30.6816C222 55.2496 193.977 78.0028 193.977 78.0028C192.34 79.3324 189.66 79.3324 188.023 78.0028C188.023 78.0028 160 55.2496 160 30.6816C160 13.7366 173.879 0 191 0C208.121 0 222 13.7366 222 30.6816Z" fill="#07D3C9"/>
<path d="M191 46.1178C182.4 46.1178 175.404 39.1931 175.404 30.6818C175.404 22.1705 182.4 15.2455 191 15.2455C199.6 15.2455 206.596 22.1702 206.596 30.6815C206.596 39.1928 199.6 46.1178 191 46.1178Z" fill="white"/>
</svg>
